<?xml version="1.0" standalone="no"?>
<!DOCTYPE svg PUBLIC "-//W3C//DTD SVG 20010904//EN"
 "http://www.w3.org/TR/2001/REC-SVG-20010904/DTD/svg10.dtd">
<svg version="1.0" xmlns="http://www.w3.org/2000/svg"
 width="2048.000000pt" height="2048.000000pt" viewBox="0 0 2048.000000 2048.000000"
 preserveAspectRatio="xMidYMid meet">

<g transform="translate(0.000000,2048.000000) scale(0.100000,-0.100000)"
fill="#000000" stroke="none">
<path d="M9845 18550 c-1183 -63 -2253 -340 -3286 -851 -841 -416 -1542 -920
-2209 -1588 -804 -805 -1420 -1742 -1840 -2796 -591 -1481 -742 -3137 -430
-4705 287 -1446 934 -2755 1913 -3874 167 -190 518 -545 702 -707 822 -729
1764 -1287 2775 -1644 206 -73 328 -79 474 -24 107 40 199 154 225 279 9 40
10 264 5 847 -4 436 -9 793 -10 793 -2 0 -71 -11 -154 -25 -301 -49 -426 -59
-755 -60 -318 0 -394 6 -605 46 -399 77 -702 230 -943 476 -143 146 -234 293
-336 544 -91 222 -281 549 -452 780 -136 182 -276 318 -421 408 -138 85 -204
135 -276 210 -163 172 -109 288 150 321 368 46 714 -85 1045 -395 142 -133
245 -259 388 -475 67 -102 156 -226 197 -275 290 -348 653 -548 1083 -595 304
-33 673 25 1017 162 105 42 108 44 114 78 67 423 222 769 449 1005 l72 75 -31
5 c-17 3 -87 12 -156 21 -874 110 -1583 348 -2133 716 -205 137 -476 382 -635
575 -559 672 -841 1652 -819 2846 7 380 37 602 122 896 127 443 384 913 669
1227 l56 62 -25 66 c-13 36 -38 116 -54 178 -151 571 -109 1233 119 1854 49
132 34 124 233 124 500 0 1198 -279 1985 -792 l113 -74 207 52 c449 114 914
184 1419 215 252 15 899 7 1133 -15 452 -42 956 -129 1297 -224 l101 -29 129
84 c757 498 1459 781 1948 787 66 0 141 -3 167 -7 l47 -8 29 -77 c256 -671
292 -1427 94 -2018 l-38 -114 79 -93 c397 -464 647 -1018 736 -1632 69 -475
33 -1218 -85 -1775 -234 -1099 -808 -1873 -1729 -2333 -467 -233 -1073 -405
-1720 -487 -93 -12 -180 -23 -193 -26 -21 -4 -17 -11 53 -87 256 -275 408
-653 461 -1147 15 -139 16 -285 11 -1399 -5 -878 -3 -1259 5 -1295 24 -116
115 -234 211 -275 128 -55 264 -52 439 8 1176 404 2295 1115 3188 2027 1950
1991 2772 4773 2220 7514 -412 2045 -1613 3887 -3334 5113 -1250 891 -2694
1405 -4256 1517 -201 15 -762 20 -955 10z"/>
</g>
</svg>
