<?xml version="1.0" standalone="no"?>
<!DOCTYPE svg PUBLIC "-//W3C//DTD SVG 20010904//EN"
 "http://www.w3.org/TR/2001/REC-SVG-20010904/DTD/svg10.dtd">
<svg version="1.0" xmlns="http://www.w3.org/2000/svg"
 width="1024.000000pt" height="1024.000000pt" viewBox="0 0 1024.000000 1024.000000"
 preserveAspectRatio="xMidYMid meet">

<g transform="translate(0.000000,1024.000000) scale(0.100000,-0.100000)"
fill="#000000" stroke="none">
<path d="M5 10228 c-3 -7 -4 -2310 -3 -5118 l3 -5105 5115 0 5115 0 0 5115 0
5115 -5113 3 c-4085 2 -5114 0 -5117 -10z m2437 -1312 c159 -45 303 -129 419
-245 118 -119 175 -211 227 -368 74 -220 55 -490 -50 -696 -122 -242 -353
-423 -623 -488 -100 -24 -299 -26 -395 -4 -304 71 -545 273 -662 555 -55 131
-63 177 -63 355 1 183 11 232 80 381 69 149 155 255 280 349 115 86 262 152
387 175 78 13 332 5 400 -14z m5021 -2410 c165 -27 287 -56 402 -97 317 -113
544 -288 718 -551 163 -246 263 -541 321 -939 41 -285 41 -285 41 -1984 l0
-1640 -779 -3 c-567 -1 -782 1 -792 9 -12 10 -14 234 -14 1353 0 1327 -5 1578
-34 1746 -75 429 -268 655 -611 715 -253 44 -550 -11 -730 -136 -203 -140
-316 -360 -372 -727 -15 -95 -17 -268 -20 -1527 -3 -1099 -6 -1421 -16 -1427
-14 -9 -1538 -11 -1561 -2 -15 6 -16 240 -16 2555 l0 2549 763 -2 762 -3 3
-342 c1 -189 6 -343 10 -343 4 0 20 23 35 51 80 141 267 342 423 451 215 151
485 258 754 297 41 6 86 13 100 15 60 11 519 -3 613 -18z m-4459 -122 c3 -9 6
-1151 6 -2539 0 -2281 -2 -2525 -16 -2539 -14 -14 -99 -16 -784 -16 -685 0
-770 2 -784 16 -14 14 -16 258 -16 2539 0 1388 3 2530 6 2539 6 14 85 16 794
16 709 0 788 -2 794 -16z"/>
</g>
</svg>
